<svg xmlns="http://www.w3.org/2000/svg" viewBox="0 0 100 100" width="100" height="100" role="img" aria-label="PostBin"><title>PostBin</title><svg fill="#0084FF" x="4" y="4" width="92" height="92" viewBox="1 1 14 14" preserveAspectRatio="xMidYMid meet" overflow="visible"><rect x="1" y="7" width="2" height="2"/>
  <rect x="2" y="2" width="2" height="2"/>
  <rect x="2" y="12" width="2" height="2"/>
  <rect x="4" y="6" width="2" height="4"/>
  <rect x="5" y="5" width="6" height="1"/>
  <rect x="5" y="10" width="6" height="1"/>
  <rect x="6" y="4" width="4" height="1"/>
  <rect x="6" y="11" width="4" height="1"/>
  <rect x="7" y="1" width="2" height="2"/>
  <rect x="7" y="7" width="2" height="2"/>
  <rect x="7" y="13" width="2" height="2"/>
  <rect x="10" y="6" width="2" height="4"/>
  <rect x="12" y="2" width="2" height="2"/>
  <rect x="12" y="12" width="2" height="2"/>
  <rect x="13" y="7" width="2" height="2"/></svg></svg>
