<svg xmlns="http://www.w3.org/2000/svg" viewBox="0 0 100 100" width="100" height="100" role="img" aria-label="Constant Contact"><title>Constant Contact</title><svg xmlns:xlink="http://www.w3.org/1999/xlink" style="enable-background:new 0 0 36 36;" x="4.364" y="4" width="91.271" height="92" viewBox="0.352 0.211 35.227 35.508" preserveAspectRatio="xMidYMid meet" overflow="visible"><style type="text/css">
	.st0{fill-rule:evenodd;clip-rule:evenodd;fill:#FF9E1A;}
	.st1{fill-rule:evenodd;clip-rule:evenodd;fill:#1856ED;}
</style>
<g>
	<desc>Created with Sketch.</desc>
	<g id="Page-1">
		<g id="logo" transform="translate(-962.000000, -1147.000000)">
			<g id="Group-40-Copy-5" transform="translate(962.000000, 1147.000000)">
				<path id="Fill-32" class="st0" d="M25.2,16.3c-0.9,0-1.8-0.6-2.1-1.5c-0.3-0.9-1-1.6-2.1-2.1c-1.1-0.5-1.6-1.9-1.1-3.1
					c0.5-1.1,1.9-1.6,3.1-1.1c2.2,1,3.8,2.6,4.5,4.7c0.4,1.2-0.2,2.5-1.4,2.9C25.7,16.3,25.5,16.3,25.2,16.3"/>
				<path id="Fill-34" class="st0" d="M33.3,16.3c-1.1,0-2.1-0.8-2.3-1.9c-0.9-5-4.4-8.5-9.6-9.6c-1.3-0.3-2.1-1.4-1.8-2.7
					s1.4-2.1,2.7-1.8c7.1,1.4,12,6.4,13.2,13.3c0.3,1.3-0.6,2.4-1.9,2.6C33.5,16.3,33.4,16.3,33.3,16.3"/>
				<path id="Fill-36" class="st1" d="M16.5,27.9c-4.6,0-8.4-3.8-8.4-8.4s3.8-8.4,8.4-8.4c1.3,0,2.3,1,2.3,2.3s-1,2.3-2.3,2.3
					c-2.1,0-3.8,1.7-3.8,3.8c0,2.1,1.7,3.8,3.8,3.8c2.1,0,3.8-1.7,3.8-3.8c0-1.3,1-2.3,2.3-2.3c1.3,0,2.3,1,2.3,2.3
					C24.8,24.2,21.1,27.9,16.5,27.9"/>
				<path id="Fill-38" class="st1" d="M16.5,35.7c-8.9,0-16.1-7.3-16.1-16.1S7.6,3.4,16.5,3.4c1.3,0,2.3,1,2.3,2.3S17.8,8,16.5,8
					C10.1,8,5,13.2,5,19.6C5,25.9,10.1,31,16.5,31s11.6-5.2,11.6-11.6c0-1.3,1-2.3,2.3-2.3c1.3,0,2.3,1,2.3,2.3
					C32.6,28.4,25.4,35.7,16.5,35.7"/>
			</g>
		</g>
	</g>
</g></svg></svg>
