<svg width="32" height="32" viewBox="0 0 32 32" fill="none" xmlns="http://www.w3.org/2000/svg">
<rect width="32" height="32" rx="2" fill="white"/>
<path d="M7.3998 27.5002C6.5998 27.2002 5.9998 26.7002 5.4998 26.2002C4.9998 25.7002 4.5998 24.9002 4.2998 24.2002L6.7998 23.5002C6.9998 24.2002 7.3998 24.7002 7.8998 25.1002C8.3998 25.5002 8.9998 25.7002 9.7998 25.7002C10.5998 25.7002 10.6998 25.7002 10.9998 25.5002C11.3998 25.4002 11.6998 25.2002 11.8998 24.9002C12.0998 24.6002 12.1998 24.3002 12.1998 24.0002C12.1998 23.7002 12.0998 23.4002 11.8998 23.2002C11.6998 23.0002 11.3998 22.8002 10.9998 22.7002L7.6998 21.9002C6.9998 21.7002 6.2998 21.4002 5.7998 21.1002C5.2998 20.7002 4.8998 20.3002 4.6998 19.8002C4.3998 19.3002 4.2998 18.8002 4.2998 18.2002C4.2998 17.6002 4.4998 16.7002 4.9998 16.1002C5.4998 15.5002 6.0998 15.0002 6.8998 14.7002C7.6998 14.4002 8.5998 14.2002 9.5998 14.2002C10.5998 14.2002 11.2998 14.3002 12.0998 14.6002C12.7998 14.9002 13.3998 15.3002 13.8998 15.8002C14.3998 16.3002 14.7998 16.9002 14.9998 17.6002L12.5998 18.4002C12.4998 18.1002 12.2998 17.7002 12.0998 17.5002C11.8998 17.2002 11.5998 17.0002 11.1998 16.8002C10.7998 16.6002 10.3998 16.5002 9.8998 16.5002C9.3998 16.5002 9.0998 16.5002 8.7998 16.7002C8.4998 16.8002 8.1998 17.0002 7.9998 17.2002C7.7998 17.4002 7.6998 17.7002 7.6998 18.0002C7.6998 18.3002 7.7998 18.6002 7.9998 18.8002C8.1998 19.0002 8.4998 19.2002 8.8998 19.3002L12.0998 20.1002C12.7998 20.3002 13.3998 20.5002 13.8998 20.8002C14.3998 21.1002 14.7998 21.5002 15.0998 22.1002C15.3998 22.6002 15.4998 23.2002 15.4998 23.8002C15.4998 24.4002 15.2998 25.4002 14.7998 26.1002C14.2998 26.8002 13.5998 27.3002 12.7998 27.6002C11.9998 27.9002 10.9998 28.1002 9.9998 28.1002C8.9998 28.1002 8.0998 27.9002 7.3998 27.6002V27.5002Z" fill="black"/>
<path d="M16.5 3.9999C16.5 3.9999 16.5 3.9999 16.6 3.9999L27.6 5.5999C27.6 5.5999 27.6 5.5999 27.6 5.6999L27.3 7.9999C27.3 7.9999 27.3 7.9999 27.2 7.9999L26.1 7.7999C25.6 7.7999 25 7.7999 24.6 7.8999C24.1 8.0999 23.7 8.3999 23.4 8.7999C23.1 9.1999 22.9 9.6999 22.8 10.1999L21.6 17.9999L18.8 17.5999L20 9.7999C20 9.2999 20 8.6999 19.9 8.2999C19.7 7.7999 19.4 7.3999 19 7.0999C18.6 6.7999 18.1 6.5999 17.6 6.4999L16.5 6.2999C16.5 6.2999 16.5 6.2999 16.5 6.1999L16.8 3.8999L16.5 3.9999Z" fill="black"/>
<path d="M20.8 18.3001L15.5 27.5001C15.5 27.6001 15.5 27.8001 15.7 27.8001H26.4C26.5 27.8001 26.6 27.7001 26.6 27.5001L21.3 18.3001C21.3 18.2001 21.1 18.2001 21 18.3001H20.8Z" fill="#FFDE3B"/>
</svg>
